<?xml version="1.0" encoding="utf-8"?>
<!-- Generator: Adobe Illustrator 27.2.0, SVG Export Plug-In . SVG Version: 6.00 Build 0)  -->
<svg version="1.1" id="Livello_1" xmlns="http://www.w3.org/2000/svg" xmlns:xlink="http://www.w3.org/1999/xlink" x="0px" y="0px"
	 viewBox="0 0 566.9 340.2" style="enable-background:new 0 0 566.9 340.2;" xml:space="preserve">
<style type="text/css">
	.st0{fill:#1D1D1B;}
</style>
<g id="Livello_2_1_">
	<g id="Livello_1-2">
		<g>
			<path class="st0" d="M17.1,279.9v37.4H7.9v-83.1h9.2v37.4h20.4v-37.4h9.2v83.1h-9.2v-37.4H17.1L17.1,279.9z"/>
			<path class="st0" d="M197.2,234.3c13,0,18.9,7.9,18.9,20.7v41.9c0,12.7-5.9,20.5-18.9,20.5h-19.5v-83.1L197.2,234.3L197.2,234.3z
				 M197.1,308.8c6.7,0,9.9-4.2,9.9-11.8v-42.8c0-7.5-3.3-11.8-10-11.8h-10v66.2h10.1V308.8z"/>
			<path class="st0" d="M355,317.2h-8.3v-83.1h11.8l19.3,60.1v-60.1h8.2v83.1h-9.7l-21.2-67.1v67.1H355z"/>
			<path class="st0" d="M535.4,281.4l-13.9,35.8h-8.8l16.7-42.9l-15.7-40.2h9.7l12.9,33.2l12.9-33.2h8.6l-15.5,40.2l16.6,42.9h-9.8
				L535.4,281.4z"/>
			<path class="st0" d="M116.7,234.3v83.1h-9.2v-83.1H116.7z"/>
			<path class="st0" d="M262.6,254.3c0-12.7,6.3-20.9,19-20.9c12.7,0,19.1,8.2,19.1,20.9v43c0,12.6-6.3,20.9-19.1,20.9
				c-12.8,0-19-8.3-19-20.9V254.3z M271.8,297.7c0,7.5,3.3,12,9.9,12c6.6,0,9.9-4.4,9.9-12v-43.9c0-7.4-3-11.9-9.9-11.9
				s-9.9,4.5-9.9,11.9V297.7z"/>
			<path class="st0" d="M455.7,234.3v83.1h-9.2v-83.1H455.7z"/>
		</g>
		<g>
			<path class="st0" d="M355.4,205.7H211.6V22.1h143.8V205.7z M215,202.2h136.7V25.6H215V202.2z"/>
			<path class="st0" d="M333,48.4v-11h-99.1v11h44.6v22h-44.6V87c0,15.4,9.3,22.5,24.5,22.5h50c15.3,0,24.6-7.1,24.6-22.5V70.4
				h-44.5v-22H333z M322.9,86.8c0,8.1-4.9,11.9-14,11.9h-51c-9.1,0-14-3.8-14-11.8v-5.4h79V86.8z"/>
			<polygon class="st0" points="233.9,123 314.1,123 259.7,145.4 233.9,135.3 233.9,145.8 276.7,162.3 233.9,178.8 233.9,190.4 
				285,170.5 333,189.2 333,178.8 293.4,163.3 333,148.1 333,136.6 285,155.3 272.9,150.5 333,127.2 333,113.2 233.9,113.2 			"/>
		</g>
	</g>
</g>
</svg>
