<svg width="146" height="92" viewBox="0 0 146 92" fill="none" xmlns="http://www.w3.org/2000/svg">
<path d="M1.76581 84.6392V91.5876H0V76.146H1.76581V83.0944H5.6656V76.146H7.43142V91.5876H5.6656V84.6392H1.76581Z" fill="#1D1D1B"/>
<path d="M49.7133 76.146C52.1881 76.146 53.3199 77.6046 53.3199 79.9849V87.7687C53.3199 90.129 52.1881 91.5876 49.7133 91.5876H45.9907V76.146H49.7133ZM49.6928 90.0229C50.9609 90.0229 51.5745 89.2538 51.5745 87.8416V79.8987C51.5745 78.4864 50.9609 77.7173 49.6723 77.7173H47.7702V90.0229H49.6996H49.6928Z" fill="#1D1D1B"/>
<path d="M93.2565 91.5876H91.668V76.146H93.911L97.5858 87.3046V76.146H99.1539V91.5876H97.3199L93.2633 79.103V91.5876H93.2565Z" fill="#1D1D1B"/>
<path d="M141.197 84.9243L138.545 91.5876H136.868L140.065 83.6248L137.072 76.146H138.906L141.354 82.3187L143.829 76.146H145.485L142.513 83.6248L145.69 91.5876H143.829L141.197 84.9243Z" fill="#1D1D1B"/>
<path d="M27.5324 76.146V91.5876H25.7666V76.146H27.5324Z" fill="#1D1D1B"/>
<path d="M68.8599 79.8786C68.8599 77.5183 70.0598 76 72.4869 76C74.9141 76 76.1413 77.5249 76.1413 79.8786V87.8614C76.1413 90.2018 74.9414 91.74 72.4869 91.74C70.0325 91.74 68.8599 90.1952 68.8599 87.8614V79.8786ZM70.6052 87.9475C70.6052 89.3598 71.2188 90.1753 72.4869 90.1753C73.7551 90.1753 74.3687 89.3598 74.3687 87.9475V79.7858C74.3687 78.3935 73.7823 77.5581 72.4869 77.5581C71.1916 77.5581 70.6052 78.3935 70.6052 79.7858V87.9475Z" fill="#1D1D1B"/>
<path d="M119.24 76.146V91.5876H117.475V76.146H119.24Z" fill="#1D1D1B"/>
<path d="M98.53 64.49H48V0H98.53V64.49ZM49.23 63.27H97.31V1.23H49.23V63.27Z" fill="#1D1D1B"/>
<path d="M71.03 48.9399L56 43.1199V39.4399L73.96 46.4599L90.83 39.8899V43.9199L76.9 49.2899L90.83 54.7099V58.3399L73.96 51.8199L56 58.7899V54.7099L71.03 48.9399Z" fill="#1D1D1B"/>
<path d="M90.8398 20.5001H56.0098V16.6201H90.8398V20.5001Z" fill="#1D1D1B"/>
<path d="M75.16 17.05V8.88H90.84V5H56V8.88H71.68V17.05H75.16Z" fill="#1D1D1B"/>
<path d="M90.8398 22.4601V19.3501H87.3098V22.3601C87.3098 25.2001 85.5698 26.5401 82.3798 26.5401H64.4698C61.2898 26.5401 59.5398 25.2001 59.5398 22.4101V19.3501H56.0098V22.4601C56.0098 27.8801 59.2898 30.3701 64.6198 30.3701H82.1898C87.5598 30.3701 90.8498 27.8801 90.8498 22.4601H90.8398Z" fill="#1D1D1B"/>
<path d="M68.87 45.1099L90.84 36.5599V31.6299H56V35.1199H84.17L64.05 43.4099L68.87 45.1099Z" fill="#1D1D1B"/>
</svg>
